<svg width="320" height="100" viewBox="0 0 320 100" fill="none" xmlns="http://www.w3.org/2000/svg">
<g clip-path="url(#clip0_303_235)">
<path d="M95.1034 100H29.3895C26.6847 100 24.4917 97.8072 24.4917 95.1024V64.0821C24.4917 62.8858 24.9288 61.7312 25.7223 60.8361L46.3347 37.5519C48.1285 35.5254 51.2215 35.3393 53.248 37.1307C55.2732 38.9233 55.4618 42.0187 53.6692 44.0439L34.2873 65.9396V90.2046H90.2056V58.1925L49.9726 12.2951L8.55669 58.7717C6.75797 60.7908 3.66133 60.9708 1.64221 59.1696C-0.376912 57.3697 -0.555681 54.2742 1.24426 52.2551L46.3457 1.64116C47.28 0.593033 48.5693 -0.0338861 50.0215 0.001623C51.426 0.00774526 52.7594 0.615073 53.6851 1.67055L98.7866 53.122C99.5702 54.0147 100.001 55.1632 100.001 56.3509V95.1024C100.001 97.8072 97.8082 100 95.1034 100Z" fill="url(#paint0_linear_303_235)"/>
<path d="M95.1034 100H29.3895C26.6847 100 24.4917 97.8072 24.4917 95.1024V64.0821C24.4917 62.8858 24.9288 61.7312 25.7223 60.8361L46.3347 37.5519C48.1285 35.5254 51.2215 35.3393 53.248 37.1307C55.2732 38.9233 55.4618 42.0187 53.6692 44.0439L34.2873 65.9396V90.2046H90.2056V58.1925L49.9726 12.2951L8.55669 58.7717C6.75797 60.7908 3.66133 60.9708 1.64221 59.1696C-0.376912 57.3697 -0.555681 54.2742 1.24426 52.2551L46.3457 1.64116C47.28 0.593033 48.5693 -0.0338861 50.0215 0.001623C51.426 0.00774526 52.7594 0.615073 53.6851 1.67055L98.7866 53.122C99.5702 54.0147 100.001 55.1632 100.001 56.3509V95.1024C100.001 97.8072 97.8082 100 95.1034 100Z" fill="url(#paint1_linear_303_235)"/>
<path d="M120.001 10.5037H136.191V42.835H160.401V10.5037H176.591V91.3035H160.401V58.9723H136.191V91.3035H120.001V10.5037V10.5037ZM184.611 8.99985L224.01 63.0349L263.409 8.99985V91.3035H247.219V57.9714L224.011 89.9998L200.804 57.9714V91.3035H184.613V8.99985H184.611ZM295.437 75.364L295.387 75.2638C299.848 75.2638 303.557 71.5546 303.557 67.0935C303.557 63.6348 302.204 61.4295 299.447 60.4268C293.632 58.2714 295.035 58.7727 289.371 56.8177C283.407 54.7626 277.893 50.7025 274.184 45.6398C271.978 42.6323 270.875 38.9231 270.875 34.462C270.875 27.7453 273.281 21.9809 278.093 17.169C282.905 12.357 288.67 9.95104 295.436 9.95104C302.153 9.95104 307.917 12.357 312.729 17.169C317.541 21.9809 319.947 27.7453 319.947 34.462H303.657C303.657 30.0509 299.948 26.3417 295.536 26.3417C291.075 26.3417 287.366 30.0509 287.366 34.512C287.366 37.4192 288.519 39.6248 290.875 41.1284C295.687 44.236 295.136 43.6346 300.9 45.3388C307.115 47.1433 312.729 51.0028 316.589 55.9651C318.845 58.8723 319.997 62.6318 319.997 67.193C319.997 73.9598 317.591 79.7241 312.779 84.5361C307.967 89.348 302.203 91.754 295.486 91.754C288.72 91.754 282.955 89.348 278.143 84.5361C273.331 79.7241 270.925 73.9598 270.925 67.193H287.266C287.266 71.7042 290.925 75.3634 295.436 75.3634L295.437 75.364Z" fill="url(#paint2_linear_303_235)"/>
</g>
<defs>
<linearGradient id="paint0_linear_303_235" x1="0.00292969" y1="0.000190735" x2="100.001" y2="0.000190735" gradientUnits="userSpaceOnUse">
<stop stop-color="#8F5E25"/>
<stop offset="0.5" stop-color="#FBF4A1"/>
<stop offset="1" stop-color="#8F5E25"/>
</linearGradient>
<linearGradient id="paint1_linear_303_235" x1="0.00292969" y1="0.000190735" x2="100.001" y2="0.000190735" gradientUnits="userSpaceOnUse">
<stop stop-color="#8F5E25"/>
<stop offset="0.5" stop-color="#FBF4A1"/>
<stop offset="1" stop-color="#8F5E25"/>
</linearGradient>
<linearGradient id="paint2_linear_303_235" x1="120.001" y1="8.99985" x2="319.997" y2="8.99985" gradientUnits="userSpaceOnUse">
<stop stop-color="#8F5E25"/>
<stop offset="0.5" stop-color="#FBF4A1"/>
<stop offset="1" stop-color="#8F5E25"/>
</linearGradient>
<clipPath id="clip0_303_235">
<rect width="320" height="100" fill="white"/>
</clipPath>
</defs>
</svg>
